<?xml version="1.0" encoding="utf-8"?>
<!-- Svg Vector Icons : http://www.onlinewebfonts.com/icon -->
<!DOCTYPE svg PUBLIC "-//W3C//DTD SVG 1.1//EN" "http://www.w3.org/Graphics/SVG/1.1/DTD/svg11.dtd">
<svg version="1.1" xmlns="http://www.w3.org/2000/svg" xmlns:xlink="http://www.w3.org/1999/xlink" x="0px" y="0px" viewBox="0 0 1000 1000" enable-background="new 0 0 1000 1000" xml:space="preserve">
<metadata> Svg Vector Icons : http://www.onlinewebfonts.com/icon </metadata>
<g><g transform="translate(0.000000,511.000000) scale(0.100000,-0.100000)"><path d="M3640,4276.9c-546.1-104.3-947.1-390.7-1149.6-820.2c-124.8-263.9-149.3-388.6-159.6-859.1c-10.2-413.2-12.3-429.6-57.3-464.3c-79.8-63.4-114.6-186.1-114.6-415.2c0-308.9,61.4-515.5,239.3-791.6c47-73.6,118.6-171.8,159.5-214.8c45-51.1,96.1-145.2,135-255.7C2899.5-112.7,3370-528,3889.5-599.6c607.5-83.9,1229.3,360,1485,1059.6c38.8,106.4,90,202.5,133,251.6c163.6,180,313,460.2,378.4,709.8c12.3,51.1,22.5,184.1,22.5,298.6c-2,223-36.8,353.9-110.5,407.1c-38.8,26.6-42.9,53.2-47,351.8c-8.2,460.2-77.7,715.9-243.4,902.1c-40.9,45-73.7,108.4-83.9,157.5c-59.3,331.4-343.6,568.6-840.7,697.5C4333.4,4301.5,3877.3,4321.9,3640,4276.9z"/><path d="M7336.2,153.2C6606-4.3,6023-499.3,5769.4-1176.4c-204.6-542.1-194.3-1092.3,30.7-1615.9C6137.5-3577.8,6906.6-4081,7765.8-4081c560.5,0,1063.7,200.4,1474.8,587.1c313,296.6,523.7,673,625.9,1118.9c45,196.4,45,664.8-2.1,867.3C9672.2-644.6,9009.4-0.2,8148.3,163.4C7927.4,204.3,7555.1,200.2,7336.2,153.2z M7446.7-356.1c110.4-73.7,112.5-92.1,112.5-646.4v-511.4l-81.8-57.3c-94.1-65.5-182.1-229.1-182.1-343.7v-73.6L6865.7-2236c-374.3-216.8-441.8-249.6-521.6-249.6c-71.6,0-104.3,12.3-161.6,61.4c-87.9,79.8-114.5,188.2-114.5,486.8c0,280.2,53.2,507.3,173.9,750.7c175.9,349.8,421.4,593.2,777.3,769.1C7246.2-305,7348.5-290.7,7446.7-356.1z M8512.4-417.5c425.5-210.7,722.1-552.3,873.4-1004.4c63.4-186.2,65.5-208.6,67.5-521.6c0-272.1-6.1-337.5-34.8-392.7c-55.2-100.2-130.9-149.3-235.2-149.3c-77.7,0-147.3,32.7-517.5,247.5l-429.6,249.5v73.6c0,114.6-85.9,278.2-182.1,343.7l-81.8,57.3v511.4c0,554.3,2.1,572.7,112.5,646.4C8183.1-290.7,8285.3-305,8512.4-417.5z M7915.1-1810.5c75.7-83.9,75.7-182-4.1-270c-49.1-55.2-73.6-67.5-145.2-67.5c-167.7,0-263.9,196.4-161.6,325.2C7692.1-1712.3,7818.9-1706.2,7915.1-1810.5z M7655.3-2395.5c120.7-34.8,126.8-34.8,265.9,10.2l141.2,45l417.3-241.4c229.1-133,435.7-265.9,456.1-294.5c94.1-124.8,42.9-286.4-135-421.4C8359-3633,7751.4-3735.3,7240.1-3561.5c-319.1,108.4-613.6,302.7-668.9,443.9c-38.9,96.1-18.4,212.7,49.1,274.1c87.9,79.8,828.4,499.1,869.3,490.9C7512.1-2356.7,7585.8-2377.1,7655.3-2395.5z"/><path d="M2457.7-168c-715.9-290.4-1180.3-503.2-1360.3-625.9C719-1049.6,436.7-1450.5,260.8-1984.4C136-2358.7,60.4-2904.9,121.7-2982.6c16.4-18.4,124.8-71.6,241.4-114.6c499.1-188.2,1206.9-319.1,2186.6-405c587.1-51.1,2385.1-51.1,2953.7,0c212.7,18.4,388.7,36.8,392.7,40.9c4.1,2.1-34.8,65.5-85.9,137.1c-204.6,290.5-368.2,699.6-417.3,1041.2c-40.9,268-16.4,724.1,49.1,961.4c87.9,319.1,249.6,621.8,468.4,887.8c45,53.2,75.7,102.3,71.6,108.4c-6.1,4.1-147.3,63.4-315,130.9L5364.4-71.8l-51.1-65.5c-237.3-308.9-525.7-517.5-873.4-634.1c-118.6-38.9-184.1-47-407.1-47c-223,0-288.4,8.2-409.1,47C3298.4-663,2977.2-433.9,2780.9-168c-38.9,53.2-77.7,96.1-83.9,94.1C2688.8-73.9,2582.5-116.8,2457.7-168z"/></g></g>
</svg>