<svg data-v-fde0c5aa="" xmlns="http://www.w3.org/2000/svg" viewBox="0 0 600 500" class="iconLeftSlogan"><!----><defs data-v-fde0c5aa=""><!----></defs><rect data-v-fde0c5aa="" fill="#FFFFFF" x="0" y="0" width="280px" height="75px" class="logo-background-square"></rect><defs data-v-fde0c5aa=""><!----></defs><g data-v-fde0c5aa="" id="fb685d08-e37e-4d92-9542-95f2b96ac9f7" fill="#201F1F" transform="matrix(4.891650166549978,0,0,4.891650166549978,127.82761361359819,94.01848796792609)"><path d="M3.54 13.15L3.54 13.72L0.28 13.72L0.28 13.15L1.44 12.84L1.69 6.01L0.53 5.71L0.53 5.14L3.33 5.14L5.60 11.79L7.81 5.14L10.71 5.14L10.71 5.71L9.51 6.02L9.79 12.84L11.00 13.15L11.00 13.72L7.03 13.72L7.03 13.15L8.23 12.84L8.02 7.28L5.81 13.72L4.89 13.86L2.53 7.29L2.34 12.84L3.54 13.15ZM16.97 12.99L16.97 12.99Q16.49 13.41 15.88 13.62L15.88 13.62L15.88 13.62Q15.27 13.83 14.45 13.83L14.45 13.83L14.45 13.83Q13.55 13.83 12.96 13.52L12.96 13.52L12.96 13.52Q12.36 13.22 12.08 12.71L12.08 12.71L12.08 12.71Q11.80 12.21 11.80 11.62L11.80 11.62L11.80 11.62Q11.80 10.65 12.30 10.04L12.30 10.04L12.30 10.04Q12.80 9.42 13.64 8.97L13.64 8.97L13.64 8.97Q12.74 7.76 12.74 6.86L12.74 6.86L12.74 6.86Q12.74 5.82 13.48 5.38L13.48 5.38L13.48 5.38Q14.22 4.94 15.11 4.94L15.11 4.94L15.11 4.94Q16.06 4.94 16.66 5.36L16.66 5.36L16.66 5.36Q17.26 5.78 17.26 6.57L17.26 6.57L17.26 6.57Q17.26 7.13 17.02 7.54L17.02 7.54L17.02 7.54Q16.77 7.95 16.39 8.25L16.39 8.25L16.39 8.25Q16.00 8.55 15.34 8.95L15.34 8.95L17.25 11.14L17.25 11.14Q17.49 10.54 17.51 9.72L17.51 9.72L16.95 9.53L16.95 8.97L19.49 8.97L19.49 9.52L18.42 9.73L18.42 9.73Q18.30 10.88 17.85 11.79L17.85 11.79L18.90 12.89L19.96 13.16L19.96 13.72L17.70 13.72L16.97 12.99ZM14.18 6.68L14.18 6.68Q14.18 7.42 14.85 8.26L14.85 8.26L14.85 8.26Q15.40 7.95 15.69 7.60L15.69 7.60L15.69 7.60Q15.99 7.25 15.99 6.75L15.99 6.75L15.99 6.75Q15.99 6.36 15.79 6.06L15.79 6.06L15.79 6.06Q15.58 5.77 15.06 5.77L15.06 5.77L15.06 5.77Q14.63 5.77 14.41 6.01L14.41 6.01L14.41 6.01Q14.18 6.24 14.18 6.68L14.18 6.68ZM14.83 13.02L14.83 13.02Q15.36 13.02 15.79 12.87L15.79 12.87L15.79 12.87Q16.23 12.71 16.51 12.43L16.51 12.43L16.51 12.43Q16.30 12.19 15.83 11.70L15.83 11.70L15.83 11.70Q14.66 10.44 14.10 9.70L14.10 9.70L14.10 9.70Q13.66 10.02 13.47 10.39L13.47 10.39L13.47 10.39Q13.29 10.77 13.29 11.28L13.29 11.28L13.29 11.28Q13.29 12.14 13.68 12.58L13.68 12.58L13.68 12.58Q14.07 13.02 14.83 13.02L14.83 13.02ZM23.93 5.14L23.93 5.14Q25.26 5.14 26.14 5.78L26.14 5.78L26.14 5.78Q27.02 6.41 27.02 7.59L27.02 7.59L27.02 7.59Q27.02 8.48 26.59 9.09L26.59 9.09L26.59 9.09Q26.15 9.70 25.45 10.00L25.45 10.00L25.45 10.00Q24.74 10.29 23.94 10.29L23.94 10.29L23.94 10.29Q23.77 10.29 23.48 10.27L23.48 10.27L23.48 10.27Q23.20 10.25 23.04 10.21L23.04 10.21L23.04 12.84L24.53 13.13L24.53 13.72L20.20 13.72L20.20 13.15L21.41 12.84L21.41 6.03L20.19 5.73L20.19 5.14L23.93 5.14ZM23.04 9.58L23.04 9.58Q23.27 9.63 23.62 9.63L23.62 9.63L23.62 9.63Q24.40 9.63 24.86 9.11L24.86 9.11L24.86 9.11Q25.33 8.60 25.33 7.69L25.33 7.69L25.33 7.69Q25.33 6.86 24.93 6.39L24.93 6.39L24.93 6.39Q24.53 5.92 23.87 5.92L23.87 5.92L23.87 5.92Q23.42 5.92 23.04 6.01L23.04 6.01L23.04 9.58Z"></path></g><defs data-v-fde0c5aa=""><!----></defs><g data-v-fde0c5aa="" id="5bfa0e0b-dae5-4ffe-9ea0-e013bbed28ba" stroke="none" fill="#252525" transform="matrix(1.0417305692000745,0,0,1.0417305692000745,385.51282650468806,-168.70547922520376)"><path d="M-263.271 327.167v-17.548h-2.15v-7.707h6.757v-11.443h-6.757v-31.51h5.38v-2.917h-5.38V256h-3.198v6.069h-53.098V256h-3.198v.042h-5.379v2.917h5.379v31.51h-6.757v11.443h6.757v7.707h-2.136v17.548h-4.45v26.181a2.529 2.529 0 0 0 2.529 2.529h4.602a2.529 2.529 0 0 0 2.529-2.529v-9.106h2.481v9.106a2.53 2.53 0 0 0 2.529 2.529h4.603a2.53 2.53 0 0 0 2.529-2.529l-.075-9.185h29.281l.127 9.185a2.53 2.53 0 0 0 2.529 2.529h4.602a2.53 2.53 0 0 0 2.529-2.529v-9.106h2.48v9.106a2.53 2.53 0 0 0 2.529 2.529h4.604a2.528 2.528 0 0 0 2.528-2.529v-9.106h.038v-17.074h-4.744zm-49.989-4.5h-8.527v-2.917h8.527v2.917zm2.695-20.755v-11.443h14.587v11.443h-14.587zm29.326 25.467h-27.599v-2.917h27.599v2.917zm0-4.712h-27.599v-2.917h27.599v2.917zm0-5.161h-27.599v-2.917h27.599v2.917zm0-4.936h-27.599v-2.917h27.599v2.917zm1.582-10.658h-14.521v-11.443h14.521v11.443zm-34.718-15.503v23.118h-1.958v-25.076h42.554v25.076h-1.957v-23.118h-38.639zm46.224 36.258h-8.526v-2.917h8.526v2.917z"></path></g><defs data-v-fde0c5aa=""><!----></defs><g data-v-fde0c5aa="" id="3087c035-294d-409e-8c6a-175f959a096c" fill="#392622" transform="matrix(1.1063412046013918,0,0,1.1063412046013918,128.88750012745624,168.13264380249905)"><path d="M0.28 3.71L0.28 3.71L0.28 3.71Q0.28 3.46 0.66 3.46L0.66 3.46L0.66 3.46Q0.71 3.46 0.84 3.47L0.84 3.47L0.84 3.47Q0.97 3.49 1.04 3.49L1.04 3.49L1.04 3.49Q1.18 3.49 1.56 3.51L1.56 3.51L1.56 3.51Q1.95 3.54 2.25 3.54L2.25 3.54L2.25 3.54Q2.69 3.54 3.18 3.51L3.18 3.51L3.18 3.51Q3.67 3.49 3.72 3.49L3.72 3.49L3.72 3.49Q3.96 3.49 3.96 3.63L3.96 3.63L3.96 3.63Q3.96 3.82 3.79 3.88L3.79 3.88L3.79 3.88Q3.63 3.95 3.42 3.97L3.42 3.97L3.42 3.97Q3.22 3.99 3.03 4.28L3.03 4.28L3.03 4.28Q2.84 4.56 2.81 5.14L2.81 5.14L2.81 5.14Q2.79 5.68 2.74 8.19L2.74 8.19L2.74 8.19Q2.70 10.70 2.70 10.99L2.70 10.99L2.70 11.55L2.70 11.55Q2.70 12.56 3.04 12.66L3.04 12.66L3.04 12.66Q3.39 12.77 3.64 12.77L3.64 12.77L3.64 12.77Q4.69 12.77 5.48 12.67L5.48 12.67L5.48 12.67Q6.27 12.57 6.67 12.42L6.67 12.42L6.67 12.42Q7.07 12.28 7.34 12.10L7.34 12.10L7.34 12.10Q7.60 11.93 7.68 11.78L7.68 11.78L7.68 11.78Q7.76 11.63 7.83 11.54L7.83 11.54L7.83 11.54Q7.91 11.44 7.99 11.44L7.99 11.44L7.99 11.44Q8.16 11.44 8.16 11.68L8.16 11.68L8.16 11.68Q8.16 12.28 7.56 12.89L7.56 12.89L7.56 12.89Q6.96 13.51 6.51 13.51L6.51 13.51L6.51 13.51Q5.50 13.51 4.24 13.44L4.24 13.44L4.24 13.44Q2.97 13.37 2.66 13.37L2.66 13.37L2.66 13.37Q2.27 13.37 1.76 13.43L1.76 13.43L1.76 13.43Q1.25 13.48 0.91 13.48L0.91 13.48L0.91 13.48Q0.50 13.48 0.50 13.31L0.50 13.31L0.50 13.31Q0.50 13.22 0.58 13.15L0.58 13.15L0.58 13.15Q0.66 13.09 0.73 13.09L0.73 13.09L0.73 13.09Q0.94 13.09 1.13 12.95L1.13 12.95L1.13 12.95Q1.39 12.75 1.50 12.23L1.50 12.23L1.50 12.23Q1.61 11.70 1.61 10.21L1.61 10.21L1.61 8.47L1.61 8.47Q1.61 8.09 1.63 7.29L1.63 7.29L1.63 7.29Q1.65 6.50 1.65 6.05L1.65 6.05L1.65 6.05Q1.65 5.67 1.62 4.77L1.62 4.77L1.62 4.77Q1.61 4.37 1.27 4.14L1.27 4.14L1.27 4.14Q0.94 3.92 0.49 3.91L0.49 3.91L0.49 3.91Q0.35 3.91 0.32 3.86L0.32 3.86L0.32 3.86Q0.28 3.81 0.28 3.71ZM16.06 8.69L16.06 8.69L16.06 8.69Q16.06 6.34 17.47 4.84L17.47 4.84L17.47 4.84Q18.89 3.33 21.48 3.33L21.48 3.33L21.48 3.33Q22.68 3.33 23.65 3.68L23.65 3.68L23.65 3.68Q24.61 4.03 25.17 4.54L25.17 4.54L25.17 4.54Q25.73 5.05 26.11 5.71L26.11 5.71L26.11 5.71Q26.49 6.37 26.63 6.92L26.63 6.92L26.63 6.92Q26.77 7.48 26.77 7.95L26.77 7.95L26.77 7.95Q26.77 9.86 26.03 11.16L26.03 11.16L26.03 11.16Q25.28 12.47 24.07 13.07L24.07 13.07L24.07 13.07Q22.86 13.66 21.28 13.66L21.28 13.66L21.28 13.66Q19.61 13.66 18.40 12.94L18.40 12.94L18.40 12.94Q17.19 12.21 16.63 11.10L16.63 11.10L16.63 11.10Q16.06 10.00 16.06 8.69ZM17.29 7.98L17.29 7.98L17.29 7.98Q17.29 8.54 17.44 9.19L17.44 9.19L17.44 9.19Q17.60 9.84 17.95 10.54L17.95 10.54L17.95 10.54Q18.30 11.23 18.80 11.78L18.80 11.78L18.80 11.78Q19.29 12.33 20.05 12.69L20.05 12.69L20.05 12.69Q20.82 13.05 21.73 13.05L21.73 13.05L21.73 13.05Q22.20 13.05 22.73 12.90L22.73 12.90L22.73 12.90Q23.25 12.75 23.77 12.45L23.77 12.45L23.77 12.45Q24.29 12.14 24.70 11.70L24.70 11.70L24.70 11.70Q25.10 11.26 25.36 10.62L25.36 10.62L25.36 10.62Q25.62 9.98 25.62 9.24L25.62 9.24L25.62 9.24Q25.62 6.71 24.29 5.30L24.29 5.30L24.29 5.30Q22.96 3.89 21 3.89L21 3.89L21 3.89Q19.46 3.89 18.38 4.93L18.38 4.93L18.38 4.93Q17.29 5.96 17.29 7.98ZM35 8.83L35 8.83L35 8.83Q35 7.31 35.61 6.09L35.61 6.09L35.61 6.09Q36.22 4.87 37.48 4.12L37.48 4.12L37.48 4.12Q38.74 3.37 40.47 3.37L40.47 3.37L40.47 3.37Q41.15 3.37 41.73 3.48L41.73 3.48L41.73 3.48Q42.32 3.58 42.70 3.72L42.70 3.72L42.70 3.72Q43.08 3.86 43.36 4.01L43.36 4.01L43.36 4.01Q43.64 4.16 43.78 4.26L43.78 4.26L43.78 4.26Q43.93 4.37 43.96 4.37L43.96 4.37L43.96 4.37Q44.00 4.37 44.15 4.26L44.15 4.26L44.15 4.26Q44.30 4.16 44.35 4.16L44.35 4.16L44.35 4.16Q44.56 4.16 44.56 4.44L44.56 4.44L44.56 4.44Q44.58 4.84 44.63 5.29L44.63 5.29L44.63 5.29Q44.67 5.74 44.72 6.03L44.72 6.03L44.72 6.03Q44.76 6.33 44.76 6.38L44.76 6.38L44.76 6.38Q44.76 6.62 44.59 6.62L44.59 6.62L44.59 6.62Q44.42 6.62 44.35 6.45L44.35 6.45L44.35 6.45Q43.86 5.39 42.71 4.65L42.71 4.65L42.71 4.65Q41.57 3.92 40.35 3.92L40.35 3.92L40.35 3.92Q38.60 3.92 37.46 5.02L37.46 5.02L37.46 5.02Q36.32 6.12 36.32 8.06L36.32 8.06L36.32 8.06Q36.32 9.35 36.79 10.49L36.79 10.49L36.79 10.49Q37.27 11.62 38.24 12.36L38.24 12.36L38.24 12.36Q39.21 13.10 40.47 13.10L40.47 13.10L40.47 13.10Q41.55 13.10 42.43 12.61L42.43 12.61L42.43 12.61Q43.30 12.12 43.40 11.49L43.40 11.49L43.40 11.49Q43.44 11.16 43.44 9.73L43.44 9.73L43.44 9.73Q43.44 9.18 43.20 8.95L43.20 8.95L43.20 8.95Q43.04 8.78 42.59 8.72L42.59 8.72L42.59 8.72Q42.17 8.68 42.10 8.55L42.10 8.55L42.10 8.55Q42.07 8.50 42.07 8.41L42.07 8.41L42.07 8.41Q42.07 8.26 42.32 8.26L42.32 8.26L42.32 8.26Q42.50 8.26 43.11 8.29L43.11 8.29L43.11 8.29Q43.71 8.33 43.88 8.33L43.88 8.33L43.88 8.33Q44.16 8.33 44.48 8.32L44.48 8.32L44.48 8.32Q44.80 8.32 45.00 8.32L45.00 8.32L45.21 8.32L45.21 8.32Q45.43 8.32 45.43 8.44L45.43 8.44L45.43 8.44Q45.43 8.54 45.07 8.69L45.07 8.69L45.07 8.69Q44.72 8.85 44.67 9.09L44.67 9.09L44.67 9.09Q44.58 9.69 44.58 10.65L44.58 10.65L44.58 10.65Q44.58 11.07 44.59 11.40L44.59 11.40L44.59 11.40Q44.60 11.72 44.61 11.85L44.61 11.85L44.61 11.85Q44.62 11.98 44.63 12.08L44.63 12.08L44.63 12.08Q44.65 12.18 44.65 12.22L44.65 12.22L44.65 12.22Q44.65 12.29 44.54 12.33L44.54 12.33L44.54 12.33Q44.44 12.36 44.20 12.42L44.20 12.42L44.20 12.42Q43.96 12.49 43.76 12.60L43.76 12.60L43.67 12.66L43.67 12.66Q43.57 12.73 43.47 12.78L43.47 12.78L43.47 12.78Q43.37 12.84 43.21 12.92L43.21 12.92L43.21 12.92Q43.05 13.01 42.88 13.09L42.88 13.09L42.88 13.09Q42.71 13.17 42.50 13.26L42.50 13.26L42.50 13.26Q42.29 13.36 42.07 13.43L42.07 13.43L42.07 13.43Q41.85 13.50 41.61 13.55L41.61 13.55L41.61 13.55Q41.37 13.61 41.11 13.64L41.11 13.64L41.11 13.64Q40.85 13.68 40.60 13.68L40.60 13.68L40.60 13.68Q39.07 13.68 37.95 13.26L37.95 13.26L37.95 13.26Q36.82 12.85 36.20 12.14L36.20 12.14L36.20 12.14Q35.59 11.44 35.29 10.61L35.29 10.61L35.29 10.61Q35 9.79 35 8.83ZM53.12 3.71L53.12 3.71L53.12 3.71Q53.12 3.50 53.51 3.50L53.51 3.50L53.51 3.50Q53.65 3.50 54.15 3.53L54.15 3.53L54.15 3.53Q54.66 3.56 55.09 3.56L55.09 3.56L55.09 3.56Q55.36 3.56 55.60 3.54L55.60 3.54L55.60 3.54Q55.85 3.53 56.32 3.53L56.32 3.53L56.32 3.53Q56.70 3.53 56.70 3.72L56.70 3.72L56.70 3.72Q56.70 3.84 56.06 4.10L56.06 4.10L56.06 4.10Q55.61 4.28 55.61 5.71L55.61 5.71L55.61 5.71Q55.61 7.60 55.59 9.05L55.59 9.05L55.59 9.05Q55.57 10.50 55.57 10.89L55.57 10.89L55.57 10.89Q55.57 12.07 55.92 12.59L55.92 12.59L55.92 12.59Q56.22 13.02 56.59 13.02L56.59 13.02L56.59 13.02Q56.62 13.02 56.73 13.03L56.73 13.03L56.73 13.03Q56.84 13.03 56.87 13.03L56.87 13.03L56.87 13.03Q56.97 13.03 57.06 13.08L57.06 13.08L57.06 13.08Q57.16 13.13 57.16 13.19L57.16 13.19L57.16 13.19Q57.16 13.34 57.09 13.39L57.09 13.39L57.09 13.39Q57.01 13.44 56.81 13.44L56.81 13.44L56.81 13.44Q56.39 13.44 56.03 13.41L56.03 13.41L56.03 13.41Q55.68 13.38 55.48 13.38L55.48 13.38L55.48 13.38Q55.09 13.38 54.63 13.42L54.63 13.42L54.63 13.42Q54.17 13.45 53.94 13.45L53.94 13.45L53.94 13.45Q53.31 13.45 53.31 13.24L53.31 13.24L53.31 13.24Q53.31 13.12 53.45 13.07L53.45 13.07L53.45 13.07Q53.58 13.02 53.75 13.00L53.75 13.00L53.75 13.00Q53.91 12.98 54.10 12.82L54.10 12.82L54.10 12.82Q54.28 12.66 54.35 12.35L54.35 12.35L54.35 12.35Q54.38 12.25 54.44 10.76L54.44 10.76L54.44 10.76Q54.50 9.27 54.50 8.61L54.50 8.61L54.50 7.81L54.50 7.81Q54.50 7.63 54.51 7.12L54.51 7.12L54.51 7.12Q54.52 6.61 54.52 6.30L54.52 6.30L54.52 5.66L54.52 5.66Q54.52 5.04 54.46 4.63L54.46 4.63L54.46 4.63Q54.42 4.30 54.09 4.12L54.09 4.12L54.09 4.12Q53.76 3.93 53.41 3.92L53.41 3.92L53.41 3.92Q53.12 3.91 53.12 3.71ZM65.25 10.82L65.25 10.82L65.25 10.82Q65.25 10.53 65.45 10.53L65.45 10.53L65.45 10.53Q65.63 10.53 65.67 10.67L65.67 10.67L65.67 10.67Q65.81 11.00 65.93 11.25L65.93 11.25L65.93 11.25Q66.05 11.49 66.32 11.85L66.32 11.85L66.32 11.85Q66.58 12.21 66.89 12.44L66.89 12.44L66.89 12.44Q67.20 12.67 67.68 12.84L67.68 12.84L67.68 12.84Q68.17 13.01 68.74 13.01L68.74 13.01L68.74 13.01Q69.79 13.01 70.43 12.45L70.43 12.45L70.43 12.45Q71.06 11.90 71.06 11.00L71.06 11.00L71.06 11.00Q71.06 10.35 70.63 9.90L70.63 9.90L70.63 9.90Q70.20 9.46 69.64 9.27L69.64 9.27L69.64 9.27Q69.08 9.09 68.22 8.77L68.22 8.77L68.22 8.77Q67.35 8.46 66.81 8.13L66.81 8.13L66.81 8.13Q65.53 7.38 65.53 6.08L65.53 6.08L65.53 6.08Q65.53 4.83 66.44 4.08L66.44 4.08L66.44 4.08Q67.34 3.33 68.78 3.33L68.78 3.33L68.78 3.33Q69.31 3.33 70.05 3.56L70.05 3.56L70.05 3.56Q70.78 3.79 70.80 3.79L70.80 3.79L70.80 3.79Q70.84 3.79 70.95 3.74L70.95 3.74L70.95 3.74Q71.06 3.68 71.12 3.68L71.12 3.68L71.12 3.68Q71.30 3.68 71.33 3.79L71.33 3.79L71.33 3.79Q71.62 5.49 71.62 5.70L71.62 5.70L71.62 5.70Q71.62 6.09 71.43 6.09L71.43 6.09L71.43 6.09Q71.30 6.09 71.23 5.89L71.23 5.89L71.23 5.89Q71.06 5.49 70.90 5.24L70.90 5.24L70.90 5.24Q70.74 4.98 70.67 4.91L70.67 4.91L70.67 4.91Q70.60 4.84 70.31 4.58L70.31 4.58L70.31 4.58Q69.55 3.91 68.47 3.91L68.47 3.91L68.47 3.91Q67.61 3.91 67.02 4.33L67.02 4.33L67.02 4.33Q66.43 4.75 66.43 5.46L66.43 5.46L66.43 5.46Q66.43 6.09 66.77 6.50L66.77 6.50L66.77 6.50Q67.12 6.90 67.69 7.13L67.69 7.13L67.69 7.13Q68.26 7.35 68.89 7.55L68.89 7.55L68.89 7.55Q69.52 7.74 70.23 8.09L70.23 8.09L70.23 8.09Q70.94 8.44 71.40 8.93L71.40 8.93L71.40 8.93Q71.96 9.53 71.96 10.43L71.96 10.43L71.96 10.43Q71.96 11.90 71.02 12.76L71.02 12.76L71.02 12.76Q70.08 13.62 68.70 13.62L68.70 13.62L68.70 13.62Q67.73 13.62 67.14 13.52L67.14 13.52L67.14 13.52Q66.56 13.41 65.94 13.09L65.94 13.09L65.94 13.09Q65.76 12.98 65.51 12.00L65.51 12.00L65.51 12.00Q65.25 11.02 65.25 10.82ZM80.05 5.32L80.05 5.32L80.05 5.32Q80.05 4.76 80.19 3.88L80.19 3.88L80.19 3.88Q80.19 3.85 80.20 3.78L80.20 3.78L80.20 3.78Q80.21 3.71 80.21 3.69L80.21 3.69L80.21 3.69Q80.22 3.67 80.23 3.62L80.23 3.62L80.23 3.62Q80.23 3.57 80.25 3.55L80.25 3.55L80.25 3.55Q80.26 3.53 80.28 3.49L80.28 3.49L80.28 3.49Q80.30 3.46 80.33 3.44L80.33 3.44L80.33 3.44Q80.36 3.43 80.40 3.42L80.40 3.42L80.40 3.42Q80.44 3.40 80.50 3.39L80.50 3.39L80.50 3.39Q80.56 3.39 80.63 3.39L80.63 3.39L80.63 3.39Q80.85 3.39 81.81 3.44L81.81 3.44L81.81 3.44Q82.77 3.50 84.57 3.50L84.57 3.50L84.57 3.50Q87.65 3.50 88.89 3.43L88.89 3.43L88.89 3.43Q88.90 3.43 88.93 3.42L88.93 3.42L88.93 3.42Q88.97 3.42 88.98 3.42L88.98 3.42L88.98 3.42Q89.14 3.42 89.19 3.50L89.19 3.50L89.19 3.50Q89.25 3.58 89.25 3.65L89.25 3.65L89.25 3.65Q89.25 3.75 89.29 4.24L89.29 4.24L89.29 4.24Q89.33 4.73 89.33 4.79L89.33 4.79L89.33 4.79Q89.33 5.14 89.29 5.23L89.29 5.23L89.29 5.23Q89.25 5.32 89.11 5.32L89.11 5.32L89.11 5.32Q89.00 5.32 88.96 5.15L88.96 5.15L88.96 5.15Q88.84 4.75 88.76 4.60L88.76 4.60L88.76 4.60Q88.68 4.45 88.40 4.34L88.40 4.34L88.40 4.34Q88.12 4.23 87.54 4.23L87.54 4.23L85.72 4.23L85.72 4.23Q85.39 4.23 85.31 4.36L85.31 4.36L85.31 4.36Q85.23 4.49 85.23 5.12L85.23 5.12L85.23 5.81L85.23 5.81Q85.23 7.69 85.21 9.11L85.21 9.11L85.21 9.11Q85.19 10.54 85.19 10.93L85.19 10.93L85.19 10.93Q85.19 11.13 85.18 11.43L85.18 11.43L85.18 11.43Q85.18 11.73 85.18 11.84L85.18 11.84L85.18 11.84Q85.18 12.45 85.37 12.64L85.37 12.64L85.37 12.64Q85.55 12.81 85.78 12.90L85.78 12.90L85.78 12.90Q86.00 12.99 86.16 13.01L86.16 13.01L86.16 13.01Q86.32 13.02 86.44 13.08L86.44 13.08L86.44 13.08Q86.55 13.13 86.55 13.26L86.55 13.26L86.55 13.26Q86.55 13.41 86.48 13.45L86.48 13.45L86.48 13.45Q86.41 13.50 86.21 13.50L86.21 13.50L86.21 13.50Q86.04 13.50 85.47 13.44L85.47 13.44L85.47 13.44Q84.90 13.38 84.66 13.38L84.66 13.38L84.66 13.38Q84.49 13.38 83.98 13.43L83.98 13.43L83.98 13.43Q83.47 13.48 83.23 13.48L83.23 13.48L83.23 13.48Q82.71 13.48 82.71 13.26L82.71 13.26L82.71 13.26Q82.71 13.12 82.80 13.07L82.80 13.07L82.80 13.07Q82.88 13.02 83.12 12.98L83.12 12.98L83.12 12.98Q83.37 12.95 83.44 12.94L83.44 12.94L83.44 12.94Q83.92 12.82 83.97 12.38L83.97 12.38L83.97 12.38Q84.11 11.14 84.11 7.08L84.11 7.08L84.10 4.58L84.10 4.58Q84.10 4.31 83.94 4.25L83.94 4.25L83.94 4.25Q83.79 4.19 83.03 4.19L83.03 4.19L83.03 4.19Q82.05 4.19 81.56 4.24L81.56 4.24L81.56 4.24Q81.06 4.30 80.98 4.35L80.98 4.35L80.98 4.35Q80.89 4.40 80.78 4.54L80.78 4.54L80.78 4.54Q80.65 4.70 80.58 4.91L80.58 4.91L80.58 4.91Q80.50 5.11 80.48 5.24L80.48 5.24L80.48 5.24Q80.46 5.38 80.39 5.47L80.39 5.47L80.39 5.47Q80.33 5.56 80.21 5.56L80.21 5.56L80.21 5.56Q80.05 5.56 80.05 5.32ZM96.89 3.71L96.89 3.71L96.89 3.71Q96.89 3.50 97.29 3.50L97.29 3.50L97.29 3.50Q97.43 3.50 97.93 3.53L97.93 3.53L97.93 3.53Q98.43 3.56 98.87 3.56L98.87 3.56L98.87 3.56Q99.13 3.56 99.38 3.54L99.38 3.54L99.38 3.54Q99.62 3.53 100.10 3.53L100.10 3.53L100.10 3.53Q100.48 3.53 100.48 3.72L100.48 3.72L100.48 3.72Q100.48 3.84 99.83 4.10L99.83 4.10L99.83 4.10Q99.39 4.28 99.39 5.71L99.39 5.71L99.39 5.71Q99.39 7.60 99.36 9.05L99.36 9.05L99.36 9.05Q99.34 10.50 99.34 10.89L99.34 10.89L99.34 10.89Q99.34 12.07 99.69 12.59L99.69 12.59L99.69 12.59Q100.00 13.02 100.37 13.02L100.37 13.02L100.37 13.02Q100.39 13.02 100.51 13.03L100.51 13.03L100.51 13.03Q100.62 13.03 100.65 13.03L100.65 13.03L100.65 13.03Q100.74 13.03 100.84 13.08L100.84 13.08L100.84 13.08Q100.94 13.13 100.94 13.19L100.94 13.19L100.94 13.19Q100.94 13.34 100.86 13.39L100.86 13.39L100.86 13.39Q100.79 13.44 100.59 13.44L100.59 13.44L100.59 13.44Q100.17 13.44 99.81 13.41L99.81 13.41L99.81 13.41Q99.46 13.38 99.26 13.38L99.26 13.38L99.26 13.38Q98.87 13.38 98.41 13.42L98.41 13.42L98.41 13.42Q97.94 13.45 97.72 13.45L97.72 13.45L97.72 13.45Q97.09 13.45 97.09 13.24L97.09 13.24L97.09 13.24Q97.09 13.12 97.22 13.07L97.22 13.07L97.22 13.07Q97.36 13.02 97.52 13.00L97.52 13.00L97.52 13.00Q97.69 12.98 97.87 12.82L97.87 12.82L97.87 12.82Q98.06 12.66 98.13 12.35L98.13 12.35L98.13 12.35Q98.15 12.25 98.22 10.76L98.22 10.76L98.22 10.76Q98.28 9.27 98.28 8.61L98.28 8.61L98.28 7.81L98.28 7.81Q98.28 7.63 98.29 7.12L98.29 7.12L98.29 7.12Q98.29 6.61 98.29 6.30L98.29 6.30L98.29 5.66L98.29 5.66Q98.29 5.04 98.24 4.63L98.24 4.63L98.24 4.63Q98.20 4.30 97.87 4.12L97.87 4.12L97.87 4.12Q97.54 3.93 97.19 3.92L97.19 3.92L97.19 3.92Q96.89 3.91 96.89 3.71ZM108.82 8.90L108.82 8.90L108.82 8.90Q108.82 7.38 109.41 6.16L109.41 6.16L109.41 6.16Q110.00 4.94 111.22 4.19L111.22 4.19L111.22 4.19Q112.45 3.44 114.13 3.44L114.13 3.44L114.13 3.44Q114.98 3.44 115.85 3.70L115.85 3.70L115.85 3.70Q116.72 3.95 117.24 4.20L117.24 4.20L117.75 4.47L117.75 4.47Q117.80 4.47 117.89 4.40L117.89 4.40L117.89 4.40Q117.99 4.33 118.05 4.33L118.05 4.33L118.05 4.33Q118.12 4.33 118.19 4.38L118.19 4.38L118.19 4.38Q118.26 4.44 118.26 4.55L118.26 4.55L118.26 4.55Q118.27 4.96 118.32 5.41L118.32 5.41L118.32 5.41Q118.37 5.87 118.41 6.16L118.41 6.16L118.41 6.16Q118.45 6.45 118.45 6.51L118.45 6.51L118.45 6.51Q118.45 6.76 118.29 6.76L118.29 6.76L118.29 6.76Q118.16 6.76 118.05 6.57L118.05 6.57L118.05 6.57Q116.69 4.02 114.13 4.02L114.13 4.02L114.13 4.02Q112.38 4.02 111.26 5.14L111.26 5.14L111.26 5.14Q110.14 6.26 110.14 8.06L110.14 8.06L110.14 8.06Q110.14 9.06 110.40 9.93L110.40 9.93L110.40 9.93Q110.66 10.79 111.18 11.51L111.18 11.51L111.18 11.51Q111.71 12.24 112.63 12.66L112.63 12.66L112.63 12.66Q113.55 13.08 114.79 13.08L114.79 13.08L114.79 13.08Q116.80 13.08 118.17 10.98L118.17 10.98L118.17 10.98Q118.23 10.88 118.38 10.88L118.38 10.88L118.38 10.88Q118.51 10.88 118.51 11.07L118.51 11.07L118.51 11.07Q118.51 11.23 118.46 11.49L118.46 11.49L118.46 11.49Q118.41 11.75 118.34 12.06L118.34 12.06L118.34 12.06Q118.27 12.38 118.26 12.45L118.26 12.45L118.26 12.45Q118.23 12.60 118.03 12.70L118.03 12.70L118.03 12.70Q117.28 13.06 116.85 13.24L116.85 13.24L116.85 13.24Q116.42 13.43 115.77 13.57L115.77 13.57L115.77 13.57Q115.11 13.72 114.42 13.72L114.42 13.72L114.42 13.72Q113.20 13.72 112.22 13.43L112.22 13.43L112.22 13.43Q111.24 13.13 110.62 12.66L110.62 12.66L110.62 12.66Q110.00 12.18 109.58 11.54L109.58 11.54L109.58 11.54Q109.16 10.91 108.99 10.25L108.99 10.25L108.99 10.25Q108.82 9.60 108.82 8.90Z"></path></g></svg>